<mxfile host="app.diagrams.net" modified="2023-04-29T00:03:38.215Z" agent="Mozilla/5.0 (Windows NT 10.0; Win64; x64) AppleWebKit/537.36 (KHTML, like Gecko) Chrome/112.0.0.0 Safari/537.36" etag="bmPiWPAVaEUCV00g3z4z" version="21.2.3" type="device">
  <diagram name="Página-1" id="-6-_gngTyoc-sSiIZYsW">
    <mxGraphModel dx="2252" dy="1820" grid="1" gridSize="10" guides="1" tooltips="1" connect="1" arrows="1" fold="1" page="1" pageScale="1" pageWidth="827" pageHeight="1169" math="0" shadow="0">
      <root>
        <mxCell id="0" />
        <mxCell id="1" parent="0" />
        <mxCell id="HSnCdicA6-OBj-B7V4cM-37" style="edgeStyle=orthogonalEdgeStyle;rounded=0;orthogonalLoop=1;jettySize=auto;html=1;entryX=0.542;entryY=0.202;entryDx=0;entryDy=0;entryPerimeter=0;" edge="1" parent="1" source="HSnCdicA6-OBj-B7V4cM-2" target="HSnCdicA6-OBj-B7V4cM-34">
          <mxGeometry relative="1" as="geometry" />
        </mxCell>
        <mxCell id="HSnCdicA6-OBj-B7V4cM-2" value="Início" style="strokeWidth=2;html=1;shape=mxgraph.flowchart.start_1;whiteSpace=wrap;" vertex="1" parent="1">
          <mxGeometry x="364" y="-100" width="100" height="60" as="geometry" />
        </mxCell>
        <mxCell id="HSnCdicA6-OBj-B7V4cM-11" style="edgeStyle=orthogonalEdgeStyle;rounded=0;orthogonalLoop=1;jettySize=auto;html=1;entryX=0.5;entryY=0;entryDx=0;entryDy=0;entryPerimeter=0;" edge="1" parent="1" source="HSnCdicA6-OBj-B7V4cM-3" target="HSnCdicA6-OBj-B7V4cM-4">
          <mxGeometry relative="1" as="geometry" />
        </mxCell>
        <mxCell id="HSnCdicA6-OBj-B7V4cM-12" style="edgeStyle=orthogonalEdgeStyle;rounded=0;orthogonalLoop=1;jettySize=auto;html=1;" edge="1" parent="1" source="HSnCdicA6-OBj-B7V4cM-3" target="HSnCdicA6-OBj-B7V4cM-7">
          <mxGeometry relative="1" as="geometry" />
        </mxCell>
        <mxCell id="HSnCdicA6-OBj-B7V4cM-13" style="edgeStyle=orthogonalEdgeStyle;rounded=0;orthogonalLoop=1;jettySize=auto;html=1;entryX=0.5;entryY=0;entryDx=0;entryDy=0;entryPerimeter=0;" edge="1" parent="1" source="HSnCdicA6-OBj-B7V4cM-3" target="HSnCdicA6-OBj-B7V4cM-8">
          <mxGeometry relative="1" as="geometry" />
        </mxCell>
        <mxCell id="HSnCdicA6-OBj-B7V4cM-14" style="edgeStyle=orthogonalEdgeStyle;rounded=0;orthogonalLoop=1;jettySize=auto;html=1;entryX=0.5;entryY=0;entryDx=0;entryDy=0;entryPerimeter=0;" edge="1" parent="1" source="HSnCdicA6-OBj-B7V4cM-3" target="HSnCdicA6-OBj-B7V4cM-9">
          <mxGeometry relative="1" as="geometry" />
        </mxCell>
        <mxCell id="HSnCdicA6-OBj-B7V4cM-3" value="x1, x2. x3. x4, x5, x6, x7, x8, x9, o1, o2, o3, o4, o5, o6, o7, o8, o9" style="html=1;strokeWidth=2;shape=manualInput;whiteSpace=wrap;rounded=1;size=26;arcSize=11;" vertex="1" parent="1">
          <mxGeometry x="320" y="240" width="200" height="100" as="geometry" />
        </mxCell>
        <mxCell id="HSnCdicA6-OBj-B7V4cM-19" style="edgeStyle=orthogonalEdgeStyle;rounded=0;orthogonalLoop=1;jettySize=auto;html=1;" edge="1" parent="1" source="HSnCdicA6-OBj-B7V4cM-4" target="HSnCdicA6-OBj-B7V4cM-15">
          <mxGeometry relative="1" as="geometry" />
        </mxCell>
        <mxCell id="HSnCdicA6-OBj-B7V4cM-38" style="edgeStyle=orthogonalEdgeStyle;rounded=0;orthogonalLoop=1;jettySize=auto;html=1;entryX=0;entryY=0.5;entryDx=0;entryDy=0;entryPerimeter=0;" edge="1" parent="1" source="HSnCdicA6-OBj-B7V4cM-4" target="HSnCdicA6-OBj-B7V4cM-7">
          <mxGeometry relative="1" as="geometry" />
        </mxCell>
        <mxCell id="HSnCdicA6-OBj-B7V4cM-4" value="jogo1=X e jogo2=x e jogo3=x&lt;br&gt;etc" style="strokeWidth=2;html=1;shape=mxgraph.flowchart.decision;whiteSpace=wrap;" vertex="1" parent="1">
          <mxGeometry y="410" width="179" height="170" as="geometry" />
        </mxCell>
        <mxCell id="HSnCdicA6-OBj-B7V4cM-24" style="edgeStyle=orthogonalEdgeStyle;rounded=0;orthogonalLoop=1;jettySize=auto;html=1;entryX=0.47;entryY=0.137;entryDx=0;entryDy=0;entryPerimeter=0;" edge="1" parent="1" source="HSnCdicA6-OBj-B7V4cM-5" target="HSnCdicA6-OBj-B7V4cM-3">
          <mxGeometry relative="1" as="geometry">
            <Array as="points">
              <mxPoint x="420" y="230" />
              <mxPoint x="410" y="230" />
              <mxPoint x="410" y="251" />
              <mxPoint x="414" y="251" />
            </Array>
          </mxGeometry>
        </mxCell>
        <mxCell id="HSnCdicA6-OBj-B7V4cM-5" value="comeca" style="rounded=1;whiteSpace=wrap;html=1;absoluteArcSize=1;arcSize=14;strokeWidth=2;" vertex="1" parent="1">
          <mxGeometry x="370" y="110" width="100" height="100" as="geometry" />
        </mxCell>
        <mxCell id="HSnCdicA6-OBj-B7V4cM-20" style="edgeStyle=orthogonalEdgeStyle;rounded=0;orthogonalLoop=1;jettySize=auto;html=1;" edge="1" parent="1" source="HSnCdicA6-OBj-B7V4cM-7" target="HSnCdicA6-OBj-B7V4cM-16">
          <mxGeometry relative="1" as="geometry" />
        </mxCell>
        <mxCell id="HSnCdicA6-OBj-B7V4cM-39" style="edgeStyle=orthogonalEdgeStyle;rounded=0;orthogonalLoop=1;jettySize=auto;html=1;entryX=0;entryY=0.5;entryDx=0;entryDy=0;entryPerimeter=0;" edge="1" parent="1" source="HSnCdicA6-OBj-B7V4cM-7" target="HSnCdicA6-OBj-B7V4cM-8">
          <mxGeometry relative="1" as="geometry" />
        </mxCell>
        <mxCell id="HSnCdicA6-OBj-B7V4cM-7" value="jogo1=O e jogo2=O e jogo3=O&lt;br&gt;etc" style="strokeWidth=2;html=1;shape=mxgraph.flowchart.decision;whiteSpace=wrap;" vertex="1" parent="1">
          <mxGeometry x="220" y="420" width="160" height="150" as="geometry" />
        </mxCell>
        <mxCell id="HSnCdicA6-OBj-B7V4cM-21" style="edgeStyle=orthogonalEdgeStyle;rounded=0;orthogonalLoop=1;jettySize=auto;html=1;" edge="1" parent="1" source="HSnCdicA6-OBj-B7V4cM-8" target="HSnCdicA6-OBj-B7V4cM-17">
          <mxGeometry relative="1" as="geometry" />
        </mxCell>
        <mxCell id="HSnCdicA6-OBj-B7V4cM-40" style="edgeStyle=orthogonalEdgeStyle;rounded=0;orthogonalLoop=1;jettySize=auto;html=1;entryX=0;entryY=0.5;entryDx=0;entryDy=0;entryPerimeter=0;" edge="1" parent="1" source="HSnCdicA6-OBj-B7V4cM-8" target="HSnCdicA6-OBj-B7V4cM-9">
          <mxGeometry relative="1" as="geometry" />
        </mxCell>
        <mxCell id="HSnCdicA6-OBj-B7V4cM-8" value="jogo1 = null ou jogo2 = null ou jogo3= null ou jogo4=null ou jogo5= null ou jogo6=null ou jogo7=null ou jogo8=null ou jogo9=null" style="strokeWidth=2;html=1;shape=mxgraph.flowchart.decision;whiteSpace=wrap;" vertex="1" parent="1">
          <mxGeometry x="420" y="422.5" width="160" height="145" as="geometry" />
        </mxCell>
        <mxCell id="HSnCdicA6-OBj-B7V4cM-22" style="edgeStyle=orthogonalEdgeStyle;rounded=0;orthogonalLoop=1;jettySize=auto;html=1;entryX=0.5;entryY=0;entryDx=0;entryDy=0;entryPerimeter=0;" edge="1" parent="1" source="HSnCdicA6-OBj-B7V4cM-44" target="HSnCdicA6-OBj-B7V4cM-18">
          <mxGeometry relative="1" as="geometry" />
        </mxCell>
        <mxCell id="HSnCdicA6-OBj-B7V4cM-9" value="else" style="strokeWidth=2;html=1;shape=mxgraph.flowchart.decision;whiteSpace=wrap;" vertex="1" parent="1">
          <mxGeometry x="630" y="415" width="170" height="160" as="geometry" />
        </mxCell>
        <mxCell id="HSnCdicA6-OBj-B7V4cM-26" style="edgeStyle=orthogonalEdgeStyle;rounded=0;orthogonalLoop=1;jettySize=auto;html=1;entryX=0;entryY=0.5;entryDx=0;entryDy=0;entryPerimeter=0;exitX=0.5;exitY=1;exitDx=0;exitDy=0;exitPerimeter=0;" edge="1" parent="1" source="HSnCdicA6-OBj-B7V4cM-15" target="HSnCdicA6-OBj-B7V4cM-25">
          <mxGeometry relative="1" as="geometry" />
        </mxCell>
        <mxCell id="HSnCdicA6-OBj-B7V4cM-15" value="&quot;Player X ganhou&quot;" style="strokeWidth=2;html=1;shape=mxgraph.flowchart.display;whiteSpace=wrap;" vertex="1" parent="1">
          <mxGeometry x="100" y="680" width="109.5" height="60" as="geometry" />
        </mxCell>
        <mxCell id="HSnCdicA6-OBj-B7V4cM-27" style="edgeStyle=orthogonalEdgeStyle;rounded=0;orthogonalLoop=1;jettySize=auto;html=1;entryX=0.447;entryY=0.017;entryDx=0;entryDy=0;entryPerimeter=0;" edge="1" parent="1" source="HSnCdicA6-OBj-B7V4cM-16" target="HSnCdicA6-OBj-B7V4cM-25">
          <mxGeometry relative="1" as="geometry" />
        </mxCell>
        <mxCell id="HSnCdicA6-OBj-B7V4cM-16" value="&quot;Player O ganhou&quot;" style="strokeWidth=2;html=1;shape=mxgraph.flowchart.display;whiteSpace=wrap;" vertex="1" parent="1">
          <mxGeometry x="290" y="680" width="100" height="60" as="geometry" />
        </mxCell>
        <mxCell id="HSnCdicA6-OBj-B7V4cM-28" style="edgeStyle=orthogonalEdgeStyle;rounded=0;orthogonalLoop=1;jettySize=auto;html=1;entryX=0.576;entryY=0.017;entryDx=0;entryDy=0;entryPerimeter=0;" edge="1" parent="1" source="HSnCdicA6-OBj-B7V4cM-17" target="HSnCdicA6-OBj-B7V4cM-25">
          <mxGeometry relative="1" as="geometry" />
        </mxCell>
        <mxCell id="HSnCdicA6-OBj-B7V4cM-17" value="&quot;O jogo não terminou&quot;" style="strokeWidth=2;html=1;shape=mxgraph.flowchart.display;whiteSpace=wrap;" vertex="1" parent="1">
          <mxGeometry x="460" y="680" width="100" height="60" as="geometry" />
        </mxCell>
        <mxCell id="HSnCdicA6-OBj-B7V4cM-29" style="edgeStyle=orthogonalEdgeStyle;rounded=0;orthogonalLoop=1;jettySize=auto;html=1;entryX=1;entryY=0.5;entryDx=0;entryDy=0;entryPerimeter=0;" edge="1" parent="1" source="HSnCdicA6-OBj-B7V4cM-18" target="HSnCdicA6-OBj-B7V4cM-25">
          <mxGeometry relative="1" as="geometry">
            <Array as="points">
              <mxPoint x="685" y="880" />
            </Array>
          </mxGeometry>
        </mxCell>
        <mxCell id="HSnCdicA6-OBj-B7V4cM-18" value="&quot;Empate&quot;" style="strokeWidth=2;html=1;shape=mxgraph.flowchart.display;whiteSpace=wrap;" vertex="1" parent="1">
          <mxGeometry x="635" y="680" width="100" height="60" as="geometry" />
        </mxCell>
        <mxCell id="HSnCdicA6-OBj-B7V4cM-32" style="edgeStyle=orthogonalEdgeStyle;rounded=0;orthogonalLoop=1;jettySize=auto;html=1;entryX=0.542;entryY=0.158;entryDx=0;entryDy=0;entryPerimeter=0;" edge="1" parent="1" source="HSnCdicA6-OBj-B7V4cM-25" target="HSnCdicA6-OBj-B7V4cM-30">
          <mxGeometry relative="1" as="geometry" />
        </mxCell>
        <mxCell id="HSnCdicA6-OBj-B7V4cM-25" value="FIM" style="strokeWidth=2;html=1;shape=mxgraph.flowchart.terminator;whiteSpace=wrap;" vertex="1" parent="1">
          <mxGeometry x="329" y="850" width="170" height="60" as="geometry" />
        </mxCell>
        <mxCell id="HSnCdicA6-OBj-B7V4cM-33" style="edgeStyle=orthogonalEdgeStyle;rounded=0;orthogonalLoop=1;jettySize=auto;html=1;entryX=1;entryY=0.5;entryDx=0;entryDy=0;entryPerimeter=0;" edge="1" parent="1" source="HSnCdicA6-OBj-B7V4cM-30" target="HSnCdicA6-OBj-B7V4cM-2">
          <mxGeometry relative="1" as="geometry">
            <Array as="points">
              <mxPoint x="790" y="1010" />
              <mxPoint x="790" y="-70" />
            </Array>
          </mxGeometry>
        </mxCell>
        <mxCell id="HSnCdicA6-OBj-B7V4cM-30" value="novo jogo" style="html=1;strokeWidth=2;shape=manualInput;whiteSpace=wrap;rounded=1;size=26;arcSize=11;" vertex="1" parent="1">
          <mxGeometry x="360" y="980" width="100" height="60" as="geometry" />
        </mxCell>
        <mxCell id="HSnCdicA6-OBj-B7V4cM-36" style="edgeStyle=orthogonalEdgeStyle;rounded=0;orthogonalLoop=1;jettySize=auto;html=1;entryX=0.429;entryY=0.016;entryDx=0;entryDy=0;entryPerimeter=0;" edge="1" parent="1" source="HSnCdicA6-OBj-B7V4cM-34" target="HSnCdicA6-OBj-B7V4cM-5">
          <mxGeometry relative="1" as="geometry" />
        </mxCell>
        <mxCell id="HSnCdicA6-OBj-B7V4cM-34" value="jogar" style="html=1;strokeWidth=2;shape=manualInput;whiteSpace=wrap;rounded=1;size=26;arcSize=11;" vertex="1" parent="1">
          <mxGeometry x="364" y="10" width="100" height="60" as="geometry" />
        </mxCell>
        <mxCell id="HSnCdicA6-OBj-B7V4cM-41" value="&lt;b&gt;V&lt;/b&gt;" style="text;html=1;strokeColor=none;fillColor=none;align=center;verticalAlign=middle;whiteSpace=wrap;rounded=0;" vertex="1" parent="1">
          <mxGeometry x="90" y="600" width="60" height="30" as="geometry" />
        </mxCell>
        <mxCell id="HSnCdicA6-OBj-B7V4cM-42" value="&lt;b&gt;V&lt;/b&gt;" style="text;html=1;strokeColor=none;fillColor=none;align=center;verticalAlign=middle;whiteSpace=wrap;rounded=0;" vertex="1" parent="1">
          <mxGeometry x="290" y="600" width="60" height="30" as="geometry" />
        </mxCell>
        <mxCell id="HSnCdicA6-OBj-B7V4cM-43" value="&lt;b&gt;V&lt;/b&gt;" style="text;html=1;strokeColor=none;fillColor=none;align=center;verticalAlign=middle;whiteSpace=wrap;rounded=0;" vertex="1" parent="1">
          <mxGeometry x="490" y="600" width="60" height="30" as="geometry" />
        </mxCell>
        <mxCell id="HSnCdicA6-OBj-B7V4cM-45" value="" style="edgeStyle=orthogonalEdgeStyle;rounded=0;orthogonalLoop=1;jettySize=auto;html=1;entryX=0.5;entryY=0;entryDx=0;entryDy=0;entryPerimeter=0;" edge="1" parent="1" source="HSnCdicA6-OBj-B7V4cM-9" target="HSnCdicA6-OBj-B7V4cM-44">
          <mxGeometry relative="1" as="geometry">
            <mxPoint x="715" y="575" as="sourcePoint" />
            <mxPoint x="685" y="680" as="targetPoint" />
          </mxGeometry>
        </mxCell>
        <mxCell id="HSnCdicA6-OBj-B7V4cM-44" value="&lt;b&gt;V&lt;/b&gt;" style="text;html=1;strokeColor=none;fillColor=none;align=center;verticalAlign=middle;whiteSpace=wrap;rounded=0;" vertex="1" parent="1">
          <mxGeometry x="670" y="600" width="60" height="30" as="geometry" />
        </mxCell>
        <mxCell id="HSnCdicA6-OBj-B7V4cM-46" value="&lt;b&gt;F&lt;/b&gt;" style="text;html=1;strokeColor=none;fillColor=none;align=center;verticalAlign=middle;whiteSpace=wrap;rounded=0;" vertex="1" parent="1">
          <mxGeometry x="170" y="460" width="60" height="30" as="geometry" />
        </mxCell>
        <mxCell id="HSnCdicA6-OBj-B7V4cM-47" value="&lt;b&gt;F&lt;/b&gt;" style="text;html=1;strokeColor=none;fillColor=none;align=center;verticalAlign=middle;whiteSpace=wrap;rounded=0;" vertex="1" parent="1">
          <mxGeometry x="370" y="460" width="60" height="30" as="geometry" />
        </mxCell>
        <mxCell id="HSnCdicA6-OBj-B7V4cM-48" value="&lt;b&gt;F&lt;/b&gt;" style="text;html=1;strokeColor=none;fillColor=none;align=center;verticalAlign=middle;whiteSpace=wrap;rounded=0;" vertex="1" parent="1">
          <mxGeometry x="580" y="470" width="60" height="30" as="geometry" />
        </mxCell>
      </root>
    </mxGraphModel>
  </diagram>
</mxfile>
